<?xml version="1.0" encoding="utf-8"?>
<!-- Generator: Adobe Illustrator 16.0.0, SVG Export Plug-In . SVG Version: 6.00 Build 0)  -->
<!DOCTYPE svg PUBLIC "-//W3C//DTD SVG 1.1//EN" "http://www.w3.org/Graphics/SVG/1.1/DTD/svg11.dtd">
<svg version="1.1" id="Layer_1" xmlns="http://www.w3.org/2000/svg" xmlns:xlink="http://www.w3.org/1999/xlink" x="0px" y="0px"
	 width="150px" height="40px" viewBox="0 0 150 40" enable-background="new 0 0 150 40" xml:space="preserve">
<g>
	<path fill="#1C1C1C" d="M16.451,31.604h-2.756v-2.082h-0.062c-0.532,0.775-1.261,1.379-2.191,1.807
		c-0.93,0.432-1.883,0.646-2.864,0.646c-1.124,0-2.14-0.195-3.048-0.586c-0.909-0.385-1.685-0.928-2.329-1.619
		c-0.644-0.695-1.138-1.506-1.486-2.424c-0.346-0.92-0.52-1.916-0.52-3.002c0-1.08,0.174-2.088,0.52-3.02
		c0.349-0.928,0.843-1.734,1.486-2.419c0.644-0.683,1.42-1.22,2.329-1.607c0.908-0.389,1.924-0.583,3.048-0.583
		c1.042,0,2.023,0.219,2.941,0.659c0.92,0.439,1.625,1.037,2.114,1.792h0.062V8.442h2.756V31.604z M8.913,29.398
		c0.736,0,1.399-0.127,1.993-0.381c0.592-0.258,1.092-0.602,1.5-1.041c0.408-0.441,0.725-0.975,0.95-1.596
		c0.225-0.625,0.338-1.301,0.338-2.037s-0.113-1.412-0.338-2.037c-0.225-0.623-0.542-1.154-0.95-1.596
		c-0.409-0.438-0.909-0.784-1.5-1.039c-0.594-0.256-1.257-0.383-1.993-0.383c-0.734,0-1.399,0.127-1.99,0.383
		c-0.594,0.255-1.094,0.602-1.502,1.039c-0.41,0.441-0.725,0.973-0.949,1.596c-0.225,0.625-0.337,1.301-0.337,2.037
		s0.112,1.412,0.337,2.037c0.224,0.621,0.54,1.154,0.949,1.596c0.409,0.439,0.908,0.783,1.502,1.041
		C7.514,29.271,8.179,29.398,8.913,29.398"/>
	<path fill="#1C1C1C" d="M21.936,25.354c0,0.633,0.138,1.211,0.413,1.732s0.638,0.965,1.087,1.336
		c0.449,0.363,0.972,0.652,1.563,0.855c0.593,0.201,1.206,0.303,1.84,0.303c0.857,0,1.603-0.195,2.237-0.594
		c0.632-0.398,1.215-0.926,1.746-1.578L32.904,29c-1.533,1.982-3.677,2.975-6.434,2.975c-1.143,0-2.181-0.195-3.11-0.586
		c-0.929-0.385-1.716-0.924-2.358-1.605c-0.644-0.686-1.139-1.492-1.485-2.422c-0.349-0.93-0.521-1.932-0.521-3.018
		c0-1.08,0.188-2.088,0.566-3.02c0.377-0.928,0.898-1.734,1.563-2.419c0.664-0.683,1.454-1.22,2.373-1.607
		c0.92-0.389,1.92-0.583,3.005-0.583c1.285,0,2.374,0.226,3.261,0.673c0.889,0.45,1.619,1.038,2.191,1.763
		c0.572,0.727,0.986,1.543,1.242,2.451c0.255,0.908,0.38,1.834,0.38,2.773v0.979H21.936z M30.638,23.145
		c-0.022-0.609-0.119-1.17-0.291-1.682c-0.174-0.512-0.435-0.955-0.782-1.332c-0.348-0.379-0.783-0.674-1.302-0.889
		c-0.521-0.215-1.13-0.322-1.823-0.322c-0.674,0-1.293,0.128-1.854,0.384c-0.562,0.254-1.037,0.586-1.424,0.994
		c-0.39,0.41-0.69,0.863-0.905,1.365c-0.214,0.498-0.321,0.994-0.321,1.48H30.638z"/>
	<path fill="#1C1C1C" d="M36.122,17.082h2.756v2.237h0.063c0.347-0.777,0.949-1.403,1.807-1.886
		c0.856-0.478,1.849-0.719,2.972-0.719c0.695,0,1.364,0.107,2.008,0.322c0.643,0.214,1.204,0.546,1.685,0.996
		c0.479,0.448,0.862,1.025,1.148,1.731c0.287,0.703,0.428,1.535,0.428,2.496v9.344h-2.755v-8.578c0-0.672-0.092-1.248-0.276-1.73
		c-0.184-0.479-0.431-0.869-0.734-1.164c-0.308-0.295-0.66-0.51-1.058-0.645c-0.399-0.131-0.813-0.197-1.24-0.197
		c-0.572,0-1.104,0.091-1.595,0.275c-0.49,0.184-0.917,0.475-1.287,0.871c-0.366,0.4-0.653,0.904-0.858,1.52
		c-0.204,0.611-0.307,1.338-0.307,2.176v7.473h-2.756V17.082z"/>
	<path fill="#1C1C1C" d="M60.173,19.473H56.22v6.588c0,0.408,0.01,0.811,0.03,1.207c0.022,0.4,0.098,0.758,0.231,1.072
		c0.133,0.316,0.335,0.574,0.613,0.768c0.276,0.197,0.678,0.291,1.211,0.291c0.326,0,0.663-0.029,1.012-0.088
		c0.347-0.066,0.663-0.18,0.948-0.34v2.512c-0.327,0.186-0.751,0.311-1.272,0.385c-0.521,0.07-0.924,0.107-1.209,0.107
		c-1.063,0-1.884-0.152-2.467-0.447c-0.582-0.293-1.013-0.678-1.288-1.146c-0.274-0.471-0.439-0.996-0.489-1.578
		c-0.051-0.582-0.078-1.172-0.078-1.766v-7.564h-3.186v-2.391h3.186v-4.074h2.757v4.074h3.953V19.473z"/>
	<path fill="#1C1C1C" d="M63.021,18.86c0.777-0.715,1.675-1.252,2.697-1.609c1.021-0.357,2.042-0.536,3.064-0.536
		c1.062,0,1.977,0.134,2.743,0.398c0.766,0.267,1.394,0.625,1.882,1.073c0.489,0.45,0.853,0.965,1.087,1.547
		c0.237,0.582,0.353,1.189,0.353,1.822v7.416c0,0.508,0.012,0.98,0.031,1.41c0.02,0.428,0.053,0.838,0.093,1.223h-2.452
		c-0.061-0.736-0.092-1.467-0.092-2.205h-0.061c-0.613,0.939-1.339,1.605-2.176,1.99c-0.837,0.391-1.808,0.586-2.911,0.586
		c-0.674,0-1.316-0.094-1.93-0.277c-0.611-0.182-1.149-0.459-1.608-0.83c-0.46-0.365-0.822-0.822-1.087-1.361
		c-0.266-0.541-0.398-1.17-0.398-1.885c0-0.939,0.208-1.725,0.627-2.357c0.419-0.633,0.991-1.148,1.716-1.549
		c0.723-0.396,1.572-0.684,2.543-0.855c0.97-0.176,2.007-0.264,3.109-0.264h2.023v-0.609c0-0.371-0.072-0.736-0.214-1.107
		c-0.142-0.367-0.358-0.697-0.643-0.994c-0.286-0.293-0.644-0.529-1.072-0.705c-0.43-0.172-0.941-0.259-1.532-0.259
		c-0.532,0-0.996,0.051-1.394,0.154c-0.398,0.104-0.762,0.23-1.089,0.383c-0.326,0.152-0.624,0.332-0.887,0.535
		c-0.268,0.205-0.522,0.4-0.766,0.582L63.021,18.86z M70.804,24.621c-0.653,0-1.322,0.035-2.006,0.105s-1.309,0.209-1.87,0.412
		c-0.562,0.205-1.021,0.49-1.378,0.859c-0.358,0.369-0.537,0.838-0.537,1.41c0,0.836,0.281,1.439,0.841,1.809
		c0.563,0.363,1.324,0.553,2.283,0.553c0.757,0,1.399-0.129,1.931-0.385c0.531-0.258,0.959-0.586,1.287-0.996
		c0.326-0.406,0.563-0.863,0.705-1.365c0.143-0.5,0.214-0.996,0.214-1.482v-0.92H70.804z"/>
	<rect x="78.313" y="8.442" fill="#1C1C1C" width="2.756" height="23.161"/>
	<rect x="84.896" y="8.442" fill="#1C1C1C" width="2.76" height="23.161"/>
	<path fill="#1C1C1C" d="M89.555,17.082h3.189l4.299,11.34h0.059l4.127-11.34h2.941L97.277,34.73c-0.246,0.633-0.5,1.211-0.766,1.73
		c-0.262,0.52-0.578,0.965-0.945,1.334c-0.365,0.367-0.809,0.654-1.328,0.855c-0.518,0.205-1.154,0.309-1.904,0.309
		c-0.408,0-0.82-0.025-1.234-0.076c-0.422-0.053-0.822-0.16-1.209-0.324l0.336-2.51c0.549,0.223,1.098,0.336,1.648,0.336
		c0.42,0,0.779-0.059,1.076-0.168c0.297-0.113,0.547-0.275,0.76-0.492c0.213-0.213,0.393-0.465,0.533-0.748
		c0.145-0.285,0.285-0.615,0.43-0.982l0.893-2.297L89.555,17.082z"/>
	<path fill="#1C1C1C" d="M114.219,19.473h-3.951v6.588c0,0.408,0.01,0.811,0.031,1.207c0.021,0.4,0.094,0.758,0.229,1.072
		c0.133,0.316,0.338,0.574,0.613,0.768c0.277,0.197,0.678,0.291,1.209,0.291c0.328,0,0.664-0.029,1.01-0.088
		c0.35-0.066,0.666-0.18,0.951-0.34v2.512c-0.328,0.186-0.75,0.311-1.271,0.385c-0.521,0.07-0.924,0.107-1.209,0.107
		c-1.061,0-1.887-0.152-2.465-0.447c-0.586-0.293-1.012-0.678-1.287-1.146c-0.279-0.471-0.441-0.996-0.492-1.578
		s-0.076-1.172-0.076-1.766v-7.564h-3.188v-2.391h3.188v-4.074h2.758v4.074h3.951V19.473z"/>
	<rect x="117.223" y="17.082" fill="#1C1C1C" width="2.756" height="14.521"/>
	<path fill="#1C1C1C" d="M133.98,20.943c-0.51-0.529-1.047-0.934-1.607-1.211c-0.563-0.275-1.23-0.413-2.008-0.413
		c-0.756,0-1.412,0.138-1.977,0.413c-0.563,0.277-1.031,0.654-1.41,1.135c-0.377,0.479-0.66,1.031-0.857,1.654
		c-0.189,0.621-0.289,1.27-0.289,1.943s0.111,1.313,0.334,1.916c0.227,0.602,0.543,1.131,0.953,1.58
		c0.408,0.449,0.898,0.799,1.471,1.057c0.57,0.254,1.217,0.381,1.928,0.381c0.775,0,1.441-0.135,1.994-0.412
		c0.549-0.277,1.063-0.682,1.531-1.213l1.961,1.963c-0.717,0.795-1.545,1.369-2.498,1.717c-0.951,0.344-1.955,0.521-3.016,0.521
		c-1.125,0-2.15-0.188-3.082-0.555c-0.93-0.367-1.73-0.881-2.404-1.545s-1.195-1.459-1.563-2.393
		c-0.369-0.928-0.551-1.953-0.551-3.076c0-1.125,0.182-2.156,0.551-3.098c0.367-0.938,0.883-1.744,1.549-2.418
		c0.662-0.675,1.459-1.2,2.389-1.578c0.928-0.378,1.967-0.567,3.111-0.567c1.061,0,2.076,0.188,3.049,0.567
		c0.967,0.377,1.813,0.955,2.525,1.732L133.98,20.943z"/>
	<path fill="#1C1C1C" d="M145.318,20.729c-0.326-0.41-0.732-0.75-1.211-1.026s-1.066-0.413-1.76-0.413
		c-0.656,0-1.223,0.137-1.701,0.413c-0.484,0.276-0.723,0.681-0.723,1.21c0,0.428,0.139,0.775,0.414,1.043
		c0.279,0.262,0.602,0.48,0.98,0.641c0.379,0.166,0.781,0.289,1.211,0.369c0.428,0.08,0.797,0.152,1.105,0.213
		c0.59,0.145,1.146,0.318,1.666,0.523c0.521,0.203,0.973,0.471,1.35,0.793c0.377,0.328,0.674,0.729,0.891,1.195
		c0.213,0.471,0.32,1.045,0.32,1.719c0,0.82-0.172,1.518-0.523,2.098c-0.346,0.58-0.795,1.059-1.348,1.424
		c-0.549,0.369-1.178,0.635-1.883,0.797s-1.416,0.248-2.129,0.248c-1.205,0-2.26-0.188-3.17-0.555s-1.721-1.039-2.438-2.021
		l2.084-1.715c0.451,0.449,0.949,0.848,1.5,1.195c0.553,0.346,1.227,0.52,2.023,0.52c0.348,0,0.697-0.037,1.057-0.107
		c0.357-0.072,0.674-0.184,0.951-0.336c0.273-0.152,0.5-0.346,0.674-0.584c0.174-0.234,0.26-0.504,0.26-0.813
		c0-0.406-0.129-0.744-0.383-1.008c-0.258-0.266-0.564-0.479-0.918-0.629c-0.359-0.154-0.738-0.277-1.137-0.365
		c-0.396-0.094-0.75-0.172-1.055-0.232c-0.596-0.145-1.154-0.307-1.686-0.49s-1.002-0.428-1.408-0.736
		c-0.41-0.307-0.738-0.695-0.982-1.164s-0.367-1.053-0.367-1.746c0-0.756,0.158-1.414,0.473-1.975
		c0.318-0.563,0.738-1.027,1.256-1.395c0.521-0.368,1.117-0.644,1.779-0.828c0.664-0.183,1.334-0.275,2.006-0.275
		c0.98,0,1.92,0.184,2.82,0.551c0.9,0.368,1.611,0.98,2.143,1.839L145.318,20.729z"/>
	<polygon fill="#B0B0B0" points="102.958,13.105 97.004,6.654 91.674,12.222 91.449,12.007 97.008,6.2 102.941,12.63 110.612,3.24 
		118.65,12.03 127.849,8.64 127.911,8.669 136.026,12.647 145.305,7.607 145.455,7.881 136.035,12.998 127.83,8.979 118.563,12.395 
		110.627,3.717 	"/>
	<path fill="#FFC100" d="M93.042,12.363c0-0.822-0.666-1.492-1.49-1.492s-1.488,0.67-1.488,1.492c0,0.824,0.664,1.492,1.488,1.492
		S93.042,13.187,93.042,12.363"/>
	<path fill="#6A1536" d="M104.579,12.618c0-0.822-0.669-1.492-1.492-1.492c-0.822,0-1.491,0.67-1.491,1.492
		c0,0.824,0.669,1.492,1.491,1.492C103.91,14.11,104.579,13.442,104.579,12.618"/>
	<path fill="#747474" d="M120.237,12.159c0-0.822-0.667-1.491-1.491-1.491c-0.828,0-1.49,0.669-1.49,1.491
		c0,0.825,0.662,1.493,1.49,1.493C119.57,13.652,120.237,12.984,120.237,12.159"/>
	<path fill="#267453" d="M137.607,12.959c0-0.822-0.668-1.492-1.494-1.492c-0.82,0-1.49,0.67-1.49,1.492
		c0,0.824,0.67,1.492,1.49,1.492C136.939,14.451,137.607,13.783,137.607,12.959"/>
	<path fill="#EB5D13" d="M98.385,6.173c0-0.823-0.67-1.492-1.494-1.492c-0.82,0-1.492,0.669-1.492,1.492s0.672,1.492,1.492,1.492
		C97.715,7.665,98.385,6.996,98.385,6.173"/>
	<path fill="#2A0D41" d="M112.241,3.022c0-0.826-0.667-1.493-1.49-1.493c-0.826,0-1.495,0.667-1.495,1.493
		c0,0.821,0.669,1.49,1.495,1.49C111.574,4.513,112.241,3.844,112.241,3.022"/>
	<path fill="#3A748F" d="M129.251,8.963c0-0.825-0.667-1.492-1.488-1.492c-0.828,0-1.496,0.667-1.496,1.492
		c0,0.822,0.668,1.492,1.496,1.492C128.584,10.456,129.251,9.786,129.251,8.963"/>
	<path fill="#EF266F" d="M146.871,7.82c0-0.823-0.672-1.49-1.49-1.49c-0.829,0-1.496,0.667-1.496,1.49
		c0,0.824,0.667,1.492,1.496,1.492C146.199,9.312,146.871,8.644,146.871,7.82"/>
</g>
<g>
</g>
<g>
</g>
<g>
</g>
<g>
</g>
<g>
</g>
<g>
</g>
<g>
</g>
<g>
</g>
<g>
</g>
<g>
</g>
<g>
</g>
<g>
</g>
<g>
</g>
<g>
</g>
<g>
</g>
</svg>
